<?xml version="1.0" encoding="UTF-8" standalone="no"?>
<svg
	xmlns:cc="http://creativecommons.org/ns#"
	xmlns:svg="http://www.w3.org/2000/svg"
	xmlns="http://www.w3.org/2000/svg"
	xmlns:xlink="http://www.w3.org/1999/xlink"
	viewBox="0 0 200 200">
	
	<defs>
		<g id="Desk">
			<path class="chair" d="m 9.1819291,2.0699 1.1146009,0 0.557193,0.13274 0.583846,0 0.557298,-0.13274 0.265375,-0.291923 0,-0.424558 -0.265375,-0.398115 -0.291923,-0.291923 -0.424558,-0.132635 -0.690038,-0.13274 -0.6899339,0 -0.981856,-0.159183 -1.14114,0 -1.804529,0.159183 -1.40652,0.13274 -0.8491169,0.424558 -0.13274,0.13274 -0.132635,0.265375 0.132635,0.424558 0.291923,0.291923 0.5572989,0.13274 0.981856,-0.13274 1.1146,0 0,0.849221 -1.1146,0 -0.557298,0.132635 -0.557193,0.265375 -0.2919239,0.424663 -0.13274,0.424558 0,1.1146 -0.849221,0 0,-1.1146 -0.265375,-0.424558 -0.291818,-0.13274 -0.424663,-0.132635 -0.265374,0.132635 -0.291923,0.13274 -0.132635,0.132635 -0.13274,0.291923 0,0.981856 0,3.07831 0.13274,0.291923 0.132635,0.13274 0.291923,0.265375 0.265374,0 0.424663,0 0.291818,-0.265375 0.265375,-0.424663 0,-1.27378 0.849221,0 0,0.583846 0.13274,0.398115 0.1326359,0.583741 0.849221,0.822673 1.1146,0.557298 1.671789,0.291923 1.83108,-0.291923 1.2472309,-0.557298 0.716586,-0.822673 0.265375,-0.981856 0,-0.583846 0.849116,0 0,1.27378 0.13274,0.291923 0.159183,0.13274 0.265375,0.265375 0.424663,0 0.291818,0 0.265375,-0.265375 0.291923,-0.13274 0,-0.291923 0,-3.07831 0,-0.981856 0,-0.291923 -0.291923,-0.132635 -0.265375,-0.13274 -0.291818,-0.132635 -0.424663,0.132635 -0.265375,0.13274 -0.159183,0.132635 -0.13274,0.291923 0,1.1146 -0.849116,0 0,-1.1146 -0.13274,-0.424558 -0.265375,-0.424663 -0.583846,-0.265375 -0.557193,-0.132635 -1.1146009,0 0,-0.849221 z m -5.3074999,3.21105 0,1.67179 0,-1.67179 z m -0.849221,1.67179 0,-1.67179 0,1.67179 z m 9.6595908,-1.67179 0,1.67179 0,-1.67179 z m -0.849116,1.67179 0,-1.67179 0,1.67179 z M 6.5281831,2.0699 l 2.653749,0 -2.653749,0 z m 2.653749,0.849221 -2.653749,0 2.653749,0 z" />
			<polygon class="table" points="15.7897,19.2661 15.9755,19.1334 16.1612,18.9742 16.2674,18.7884 16.347,18.6027 16.3735,18.3639 16.3735,12.9236 16.347,12.7379 16.2674,12.5522 16.1612,12.3664 15.9755,12.2071 15.7897,12.0745 15.5508,11.9683 15.2855,11.9152 15.0201,11.8887 1.6188,11.8622 1.32687,11.9152 1.0615,11.9683 0.849221,12.0745 0.636942,12.2071 0.477654,12.3664 0.345019,12.5522 0.265375,12.7379 0.238827,12.9236 0.238827,18.3373 0.265375,18.6027 0.345019,18.7884 0.477654,18.9742 0.636942,19.1334 0.849221,19.2661 1.0615,19.3723 1.32687,19.4254 1.6188,19.4518 15.0201,19.4254 15.2855,19.4254 15.5508,19.3723 " />
		</g>
	</defs>
	
	<use x="10" y="10" xlink:href="#Desk" id="desk_1" class="desk"/>
	<use x="30" y="10" xlink:href="#Desk" id="desk_2" class="desk"/>
	<use x="50" y="10" xlink:href="#Desk" id="desk_3" class="desk"/>
	<use x="70" y="10" xlink:href="#Desk" id="desk_4" class="desk"/>

</svg>